<svg id="Layer_1" enable-background="new 0 0 512.004 512.004" height="512" viewBox="0 0 512.004 512.004" width="512" xmlns="http://www.w3.org/2000/svg"><g><g><path d="m14.988 111.914c-2.626 0-5.286-.69-7.703-2.14-7.104-4.262-9.407-13.476-5.145-20.58 10.759-17.932 23.712-34.521 38.499-49.309 14.419-14.418 30.564-27.102 47.985-37.698 7.078-4.306 16.306-2.057 20.61 5.021s2.058 16.305-5.021 20.61c-15.38 9.355-29.632 20.552-42.361 33.281-13.055 13.054-24.489 27.7-33.987 43.53-2.813 4.687-7.781 7.285-12.877 7.285z" fill="#bcfbff"/></g><g><path d="m497.017 111.421c-5.064 0-10.006-2.564-12.83-7.207-9.356-15.382-20.554-29.635-33.281-42.362-13.056-13.055-27.701-24.49-43.53-33.987-7.104-4.262-9.407-13.476-5.145-20.58 4.262-7.103 13.473-9.408 20.58-5.145 17.93 10.758 34.52 23.71 49.308 38.498 14.417 14.417 27.101 30.562 37.699 47.985 4.305 7.078 2.058 16.306-5.021 20.611-2.434 1.481-5.125 2.187-7.78 2.187z" fill="#7dd5f4"/></g><g><path d="m45.99 184.656c-1.392 0-2.805-.195-4.208-.604-7.952-2.32-12.519-10.648-10.198-18.601 9.292-31.853 26.605-61.09 50.067-84.553 22.866-22.867 51.303-39.941 82.235-49.377 7.924-2.417 16.308 2.047 18.725 9.97 2.417 7.924-2.047 16.307-9.971 18.724-26.246 8.007-50.374 22.494-69.776 41.896-19.906 19.907-34.597 44.715-42.481 71.741-1.911 6.551-7.898 10.804-14.393 10.804z" fill="#7dd5f4"/></g><g><path d="m466.131 183.267c-6.427 0-12.37-4.162-14.343-10.627-8.006-26.246-22.493-50.374-41.896-69.776-19.906-19.907-44.714-34.597-71.741-42.482-7.952-2.32-12.519-10.647-10.198-18.601s10.647-12.518 18.601-10.199c31.854 9.293 61.091 26.606 84.552 50.068 22.867 22.867 39.941 51.303 49.378 82.235 2.417 7.924-2.047 16.307-9.971 18.724-1.458.446-2.933.658-4.382.658z" fill="#4793ff"/></g><g><path d="m96.404 512.004c-2.655 0-5.345-.705-7.78-2.186-17.421-10.596-33.565-23.28-47.984-37.699-14.787-14.787-27.74-31.376-38.499-49.308-4.263-7.104-1.959-16.317 5.145-20.58 7.104-4.264 16.318-1.959 20.58 5.145 9.498 15.83 20.933 30.476 33.987 43.529 12.729 12.729 26.981 23.927 42.361 33.282 7.078 4.305 9.325 13.533 5.021 20.61-2.825 4.643-7.767 7.207-12.831 7.207z" fill="#bcfbff"/></g><g><path d="m415.108 512.004c-5.097 0-10.064-2.597-12.877-7.285-4.263-7.104-1.959-16.317 5.145-20.58 15.829-9.497 30.475-20.932 43.53-33.987 12.728-12.727 23.925-26.98 33.281-42.362 4.306-7.077 13.532-9.324 20.61-5.02 7.078 4.305 9.325 13.533 5.021 20.611-10.599 17.423-23.282 33.567-37.699 47.984-14.788 14.788-31.378 27.741-49.308 38.499-2.416 1.45-5.077 2.14-7.703 2.14z" fill="#7dd5f4"/></g><g><path d="m168.268 481.141c-1.449 0-2.923-.212-4.382-.657-30.933-9.436-59.369-26.511-82.235-49.377-23.462-23.462-40.775-52.7-50.067-84.553-2.32-7.953 2.246-16.28 10.198-18.601 7.952-2.319 16.28 2.246 18.601 10.199 7.885 27.026 22.575 51.834 42.481 71.741 19.402 19.402 43.53 33.889 69.776 41.896 7.924 2.417 12.388 10.8 9.971 18.724-1.973 6.465-7.917 10.628-14.343 10.628z" fill="#7dd5f4"/></g><g><path d="m342.346 481.026c-6.496 0-12.481-4.252-14.393-10.803-2.32-7.953 2.246-16.281 10.198-18.601 27.027-7.885 51.835-22.575 71.741-42.482 19.402-19.402 33.89-43.53 41.896-69.776 2.417-7.923 10.797-12.386 18.725-9.97 7.924 2.417 12.388 10.8 9.971 18.724-9.437 30.932-26.511 59.368-49.378 82.235-23.461 23.462-52.698 40.775-84.552 50.068-1.402.41-2.817.605-4.208.605z" fill="#4793ff"/></g><g><path d="m256.002 397.271c-25.791 0-67.952-32.636-98.296-64.98-19.455-20.737-64.704-74.465-64.704-125.368 0-51.237 41.685-92.921 92.922-92.921 17.75 0 35.01 5.026 49.915 14.535 7.558 4.822 14.338 10.675 20.163 17.361 5.825-6.687 12.605-12.54 20.163-17.361 14.905-9.509 32.165-14.535 49.915-14.535 51.237 0 92.922 41.685 92.922 92.921 0 53.404-40.634 103.444-64.854 128.52-29.727 30.776-71.603 61.828-98.146 61.828z" fill="#ff415b"/></g><path d="m326.081 114.002c-17.75 0-35.01 5.026-49.915 14.535-7.558 4.822-14.338 10.675-20.163 17.361v251.373c26.543 0 68.419-31.053 98.146-61.828 24.221-25.075 64.854-75.115 64.854-128.52-.001-51.236-41.685-92.921-92.922-92.921z" fill="#e50058"/></g></svg>